<svg width="63" height="63" viewBox="0 0 63 63" fill="none" xmlns="http://www.w3.org/2000/svg">
<g clip-path="url(#clip0_915_25897)">
<path d="M33.1932 5.58023C33.1932 5.58023 23.6013 4.23051 12.8395 14.3264C2.09581 24.4222 -1.19749 47.7093 0.368176 52.8562C1.78988 57.5172 7.60265 59.1189 13.1455 57.8592C18.6883 56.5994 21.2078 52.7303 22.3235 49.5989C24.879 53.1622 33.6971 57.6612 39.6359 49.5269C42.8392 52.4423 46.6724 57.7872 55.3465 55.8616C64.0207 53.936 62.9589 39.701 62.9589 39.701C62.9589 39.701 64.2727 3.99656 33.1932 5.56223V5.58023Z" fill="#CCCCCC"/>
<path d="M27.686 30.5952C29.4154 30.5952 30.8174 29.1932 30.8174 27.4639C30.8174 25.7345 29.4154 24.3325 27.686 24.3325C25.9566 24.3325 24.5547 25.7345 24.5547 27.4639C24.5547 29.1932 25.9566 30.5952 27.686 30.5952Z" fill="white"/>
<path d="M28.209 29.0473C28.9047 29.0473 29.4687 28.4833 29.4687 27.7876C29.4687 27.0918 28.9047 26.5278 28.209 26.5278C27.5132 26.5278 26.9492 27.0918 26.9492 27.7876C26.9492 28.4833 27.5132 29.0473 28.209 29.0473Z" fill="#323337"/>
<path d="M35.3169 30.5952C37.0463 30.5952 38.4482 29.1932 38.4482 27.4639C38.4482 25.7345 37.0463 24.3325 35.3169 24.3325C33.5875 24.3325 32.1855 25.7345 32.1855 27.4639C32.1855 29.1932 33.5875 30.5952 35.3169 30.5952Z" fill="white"/>
<path d="M34.8672 29.0473C35.5629 29.0473 36.1269 28.4833 36.1269 27.7876C36.1269 27.0918 35.5629 26.5278 34.8672 26.5278C34.1714 26.5278 33.6074 27.0918 33.6074 27.7876C33.6074 28.4833 34.1714 29.0473 34.8672 29.0473Z" fill="#323337"/>
<path fill-rule="evenodd" clip-rule="evenodd" d="M29.4685 32.4489L29.3643 32.2783C29.27 32.3359 29.2403 32.4589 29.2979 32.5532C29.3876 32.6559 29.4775 32.476 29.8526 32.4652L29.4685 32.4489ZM34.0052 32.6419C34.1117 32.6708 34.2216 32.6079 34.2505 32.5013C34.2795 32.3947 34.2166 32.2849 34.11 32.2559L34.1086 32.2556L34.1051 32.2546L34.092 32.2511L34.0421 32.2382C33.9988 32.2271 33.9359 32.2114 33.8567 32.1925C33.6983 32.1548 33.4742 32.1047 33.2109 32.0545C32.6863 31.9546 31.9973 31.853 31.3581 31.853C30.7157 31.853 30.2232 31.9555 29.8881 32.0601C29.7207 32.1123 29.5927 32.165 29.5051 32.2056C29.4613 32.2259 29.4276 32.2431 29.4041 32.2558C29.3924 32.2621 29.3832 32.2672 29.3765 32.2711L29.3685 32.2758L29.3659 32.2773L29.365 32.2779C29.365 32.2779 29.3643 32.2783 29.4685 32.4489" fill="#323337"/>
</g>
<defs>
<clipPath id="clip0_915_25897">
<rect width="63" height="63" fill="white"/>
</clipPath>
</defs>
</svg>
