<svg width="28" height="28" viewBox="0 0 28 28" fill="none" xmlns="http://www.w3.org/2000/svg">
<rect width="28" height="28" rx="14" fill="#FF7E7E"/>
<mask id="mask0_186_4994" style="mask-type:alpha" maskUnits="userSpaceOnUse" x="2" y="2" width="24" height="24">
<rect x="2" y="2" width="24" height="24" fill="#D9D9D9"/>
</mask>
<g mask="url(#mask0_186_4994)">
<path d="M12 15.9558L18.073 9.87303C18.211 9.73469 18.3865 9.66553 18.5995 9.66553C18.8127 9.66553 18.9885 9.73453 19.127 9.87253C19.2654 10.0105 19.3345 10.1861 19.3345 10.3993C19.3345 10.6126 19.2654 10.7885 19.127 10.927L12.6328 17.4115C12.4519 17.5924 12.241 17.6828 12 17.6828C11.759 17.6828 11.5481 17.5924 11.3673 17.4115L8.87303 14.927C8.73469 14.789 8.66553 14.6135 8.66553 14.4005C8.66553 14.1874 8.73453 14.0115 8.87253 13.873C9.01053 13.7347 9.18611 13.6655 9.39928 13.6655C9.61261 13.6655 9.78853 13.7347 9.92703 13.873L12 15.9558Z" fill="white"/>
</g>
</svg>
