<svg width="63" height="63" viewBox="0 0 63 63" fill="none" xmlns="http://www.w3.org/2000/svg">
<path d="M10.0044 9.30561C-3.36021 19.5865 -5.28934 50.0291 16.3686 58.7898C38.0265 67.5505 56.2239 62.3901 61.2754 45.6287C66.3269 28.8673 59.6844 13.546 49.104 5.98533C37.052 -2.6354 25.0795 -2.29537 10.0243 9.30561H10.0044Z" fill="#FFE84C"/>
<path d="M34.3165 31.6879C35.9751 31.6879 37.3196 29.4581 37.3196 26.7075C37.3196 23.9569 35.9751 21.7271 34.3165 21.7271C32.658 21.7271 31.3135 23.9569 31.3135 26.7075C31.3135 29.4581 32.658 31.6879 34.3165 31.6879Z" fill="white"/>
<path d="M33.0636 30.0272C34.0302 30.0272 34.8137 28.6302 34.8137 26.9069C34.8137 25.1836 34.0302 23.7866 33.0636 23.7866C32.097 23.7866 31.3135 25.1836 31.3135 26.9069C31.3135 28.6302 32.097 30.0272 33.0636 30.0272Z" fill="#323337"/>
<path d="M27.754 31.6879C29.4126 31.6879 30.7571 29.4581 30.7571 26.7075C30.7571 23.9569 29.4126 21.7271 27.754 21.7271C26.0955 21.7271 24.751 23.9569 24.751 26.7075C24.751 29.4581 26.0955 31.6879 27.754 31.6879Z" fill="white"/>
<path d="M26.5011 30.0272C27.4677 30.0272 28.2512 28.6302 28.2512 26.9069C28.2512 25.1836 27.4677 23.7866 26.5011 23.7866C25.5345 23.7866 24.751 25.1836 24.751 26.9069C24.751 28.6302 25.5345 30.0272 26.5011 30.0272Z" fill="#323337"/>
<path fill-rule="evenodd" clip-rule="evenodd" d="M33.2986 31.7297C33.6214 31.8754 33.7817 32.2987 33.6568 32.6753C33.3516 33.5954 32.9779 34.2408 32.4186 34.6268C31.8825 34.9967 31.267 35.0579 30.6619 35.0891C30.009 35.1228 29.4047 34.8449 28.9518 34.5229C28.5103 34.209 28.1203 33.7865 27.9324 33.4006C27.7615 33.0495 27.8669 32.6033 28.1679 32.4039C28.4688 32.2045 28.8513 32.3275 29.0222 32.6786C29.0688 32.7743 29.2695 33.0366 29.604 33.2744C29.9272 33.5042 30.2842 33.6451 30.6066 33.6285C31.2206 33.5968 31.5429 33.5324 31.7805 33.3684C31.9948 33.2205 32.2307 32.9235 32.4881 32.1476C32.613 31.771 32.9759 31.5839 33.2986 31.7297Z" fill="#323337"/>
</svg>
