<svg width="32" height="32" viewBox="0 0 32 32" fill="none" xmlns="http://www.w3.org/2000/svg">
<path fill-rule="evenodd" clip-rule="evenodd" d="M4.90381 4.90381C3 6.80761 3 9.87174 3 16C3 22.1282 3 25.1924 4.90381 27.0961C6.80761 29 9.87174 29 16 29C22.1282 29 25.1924 29 27.0961 27.0961C29 25.1924 29 22.1282 29 16C29 9.87174 29 6.80761 27.0961 4.90381C25.1924 3 22.1282 3 16 3C9.87174 3 6.80761 3 4.90381 4.90381ZM16 17.3C16.718 17.3 17.3 16.718 17.3 16C17.3 15.282 16.718 14.7 16 14.7C15.282 14.7 14.7 15.282 14.7 16C14.7 16.718 15.282 17.3 16 17.3ZM12.1 16C12.1 16.718 11.518 17.3 10.8 17.3C10.082 17.3 9.5 16.718 9.5 16C9.5 15.282 10.082 14.7 10.8 14.7C11.518 14.7 12.1 15.282 12.1 16ZM21.2 17.3C21.918 17.3 22.5 16.718 22.5 16C22.5 15.282 21.918 14.7 21.2 14.7C20.482 14.7 19.9 15.282 19.9 16C19.9 16.718 20.482 17.3 21.2 17.3Z" fill="#FF5E5A"/>
</svg>
