<svg width="63" height="63" viewBox="0 0 63 63" fill="none" xmlns="http://www.w3.org/2000/svg">
<path d="M53.8686 44.5984C54.8553 48.7791 54.3034 52.4749 50.8752 55.5185C45.8918 59.9501 37.5303 60.4016 33.0987 55.4181C32.3964 54.6322 31.8111 53.7793 31.3763 52.8763C31.2258 53.0602 28.0818 56.9232 24.0683 57.9266C20.0548 58.93 14.854 57.057 12.9643 53.8796C10.8739 50.3511 11.7101 46.8058 13.7837 42.8425C13.3155 42.8927 12.8473 42.8425 12.379 42.9094C4.63629 43.896 -0.648156 36.5212 1.00741 29.4307C2.22819 24.163 5.40554 23.0091 11.8104 22.7583C10.7903 20.9355 10.2218 18.7782 10.2218 16.4704C10.2218 9.79799 15.038 4.39648 20.9913 4.39648C25.1888 4.39648 28.8344 7.08888 30.5903 11.002C33.0318 8.22604 36.8112 6.43668 41.0588 6.43668C48.4504 6.43668 54.4372 11.8549 54.4372 18.5106C54.4372 19.4137 54.3368 20.2833 54.1194 21.1194C58.6848 22.4238 62.297 27.1898 62.297 32.8422C62.297 38.4945 58.551 43.3944 53.8686 44.5984Z" fill="#CDA8F3"/>
<path d="M30.0717 28.5106C29.5533 30.0324 27.8977 30.8518 26.3759 30.3334C24.8541 29.815 24.0347 28.1594 24.5531 26.6376C25.0715 25.1158 26.7271 24.2964 28.2489 24.8148C28.5164 24.8984 28.784 25.0322 28.9847 25.1994C29.6034 25.6175 30.0215 26.2697 30.1553 26.9888C30.2556 27.457 30.2389 27.9922 30.0717 28.4939V28.5106Z" fill="white"/>
<path d="M30.1547 27.0058C29.8537 27.4573 29.3018 27.658 28.7834 27.474C28.1814 27.2733 27.8469 26.6044 28.0476 25.9857C28.1981 25.5509 28.5827 25.2666 28.9841 25.1997C29.6028 25.6178 30.0209 26.27 30.1547 26.9891V27.0058Z" fill="#323337"/>
<path d="M35.54 28.31C35.1387 29.8653 33.55 30.8017 31.9948 30.4004C30.4395 29.999 29.5031 28.4104 29.9044 26.8551C30.3058 25.2999 31.8944 24.3634 33.4497 24.7648C33.7172 24.8317 33.9848 24.9487 34.2022 25.0992C34.8544 25.4671 35.3059 26.1026 35.5066 26.805C35.6404 27.2732 35.6571 27.7916 35.5233 28.31H35.54Z" fill="white"/>
<path d="M35.5227 26.8047C35.2552 27.273 34.72 27.5071 34.1849 27.3733C33.5662 27.2061 33.1815 26.5706 33.3488 25.9519C33.4658 25.5171 33.817 25.1993 34.2184 25.1157C34.8705 25.4836 35.3221 26.1191 35.5227 26.8215V26.8047Z" fill="#323337"/>
<path d="M32.9145 32.5245C33.1319 31.9559 31.9948 30.3004 29.8208 30.8522C27.6468 31.4041 27.8976 31.7887 27.8308 32.5245C27.7639 33.2603 32.6971 33.0931 32.9145 32.5245Z" fill="#9B7BB7"/>
<path fill-rule="evenodd" clip-rule="evenodd" d="M25.9767 22.5391C26.0791 22.5314 26.1683 22.6081 26.176 22.7104L25.9907 22.7244C26.176 22.7104 26.176 22.7105 26.176 22.7106L26.176 22.7109L26.1761 22.7115L26.1762 22.7133L26.1765 22.7188L26.1774 22.7372C26.178 22.7527 26.1786 22.7745 26.1786 22.802C26.1785 22.8569 26.176 22.9345 26.1668 23.0289C26.1482 23.2174 26.1023 23.4754 25.9921 23.7542C25.7694 24.3179 25.2872 24.9563 24.274 25.2762C24.1762 25.3071 24.0718 25.2529 24.0409 25.155C24.01 25.0571 24.0643 24.9528 24.1621 24.9219C25.0554 24.6398 25.4595 24.0908 25.6465 23.6177C25.7412 23.3781 25.7809 23.1553 25.7969 22.9926C25.8049 22.9115 25.8069 22.8459 25.8069 22.8015C25.807 22.7793 25.8065 22.7625 25.8061 22.7517L25.8055 22.7402L25.8054 22.7384" fill="#9B7BB7"/>
<path fill-rule="evenodd" clip-rule="evenodd" d="M34.0597 22.5098C34.1596 22.4865 34.2595 22.5486 34.2828 22.6486L34.1019 22.6907C34.2828 22.6486 34.2828 22.6485 34.2828 22.6484L34.2828 22.6483L34.2827 22.6481C34.2827 22.648 34.2827 22.6481 34.2828 22.6482L34.2833 22.6503L34.2862 22.6613C34.289 22.6717 34.2936 22.6877 34.3002 22.7087C34.3135 22.7508 34.335 22.8123 34.3668 22.8869C34.4307 23.0364 34.5352 23.2357 34.6974 23.4345C35.0176 23.8272 35.5689 24.2274 36.51 24.2274C36.6126 24.2274 36.6958 24.3106 36.6958 24.4132C36.6958 24.5158 36.6126 24.599 36.51 24.599C35.4443 24.599 34.7916 24.138 34.4094 23.6694C34.2204 23.4376 34.0992 23.2063 34.0251 23.0329C33.9879 22.9459 33.9624 22.8729 33.9459 22.8208C33.9376 22.7947 33.9316 22.7737 33.9276 22.7588L33.9229 22.741L33.9216 22.7357L33.9212 22.734L33.921 22.7334L33.921 22.7331C33.9209 22.733 33.9209 22.7329 34.1019 22.6907L33.9209 22.7329C33.8976 22.633 33.9598 22.5331 34.0597 22.5098Z" fill="#9B7BB7"/>
</svg>
