<svg width="63" height="63" viewBox="0 0 63 63" fill="none" xmlns="http://www.w3.org/2000/svg">
<g clip-path="url(#clip0_915_25219)">
<path d="M31.781 5.0057C20.8153 5.57907 12.3222 12.3162 7.00056 21.2393C1.80437 29.9474 -3.6785 43.9413 3.29156 54.1903C5.76423 57.8276 11.5338 59.709 21.3886 59.8882C31.1897 58.9923 43.8756 58.2039 49.466 57.4155C55.0563 56.6271 59.3029 53.3661 62.0801 49.7646C66.7209 42.3287 53.3721 3.91271 31.781 5.02362V5.0057Z" fill="#8DCAF5"/>
<path fill-rule="evenodd" clip-rule="evenodd" d="M31.3317 33.5182C31.019 33.2193 30.4698 32.9067 29.5265 32.9237L29.5253 32.9238C28.8317 32.9321 28.3925 33.1728 28.1279 33.4016C27.9942 33.5172 27.9029 33.6318 27.8457 33.7159C27.8172 33.758 27.7973 33.7922 27.785 33.8149C27.7789 33.8262 27.7746 33.8346 27.7722 33.8396L27.7699 33.8445L27.77 33.8443L27.77 33.8441C27.7258 33.9446 27.6085 33.9904 27.5078 33.9462C27.4072 33.9021 27.3613 33.7846 27.4055 33.684L27.5878 33.7639C27.4055 33.684 27.4055 33.6838 27.4056 33.6837L27.4057 33.6835L27.406 33.6829L27.4066 33.6815L27.4084 33.6775L27.4142 33.6653C27.4191 33.6553 27.4259 33.6418 27.4349 33.6251C27.4529 33.5919 27.4797 33.5462 27.5164 33.4922C27.5896 33.3843 27.7033 33.2424 27.8675 33.1004C28.1985 32.8142 28.7268 32.5353 29.5199 32.5256C30.5652 32.5069 31.2164 32.8572 31.6068 33.2303C31.7999 33.4147 31.9253 33.601 32.003 33.7427C32.0419 33.8135 32.069 33.8735 32.0867 33.917C32.0956 33.9387 32.1021 33.9564 32.1066 33.9693L32.112 33.9849L32.1136 33.9899L32.1141 33.9917L32.1143 33.9924L32.1144 33.9927C32.1145 33.9928 32.1145 33.9929 31.9298 34.0488L32.1145 33.9929C32.1463 34.0982 32.0868 34.2093 31.9816 34.2412C31.8764 34.273 31.7652 34.2135 31.7334 34.1083L31.9238 34.0506C31.7334 34.1083 31.7334 34.1084 31.7335 34.1085L31.7335 34.1087L31.7336 34.109L31.7337 34.1093C31.7337 34.1092 31.7336 34.1089 31.7334 34.1085L31.731 34.1014C31.7285 34.0943 31.7243 34.0827 31.718 34.0673C31.7054 34.0365 31.6847 33.9904 31.6539 33.9341C31.5922 33.8216 31.4903 33.6697 31.3317 33.5182ZM27.7699 33.8445L27.7698 33.8446L27.7697 33.8449C27.7696 33.845 27.7697 33.8449 27.7699 33.8445Z" fill="#323337"/>
<path d="M28.3946 28.2984C28.3946 30.7711 26.549 32.7779 24.2735 32.7779C21.9979 32.7779 20.1703 30.8069 20.1523 28.3522L21.8725 27.6892L25.6173 26.2558L27.4987 25.5391C28.0541 26.2916 28.3946 27.2592 28.3946 28.2984Z" fill="white"/>
<path d="M26.8172 28.6031C26.8172 30.144 25.6705 31.3983 24.2729 31.3983C22.8753 31.3983 21.7285 30.144 21.7285 28.6031C21.7285 28.2806 21.7823 27.976 21.8719 27.6893L25.6167 26.2559C26.3334 26.7396 26.8172 27.5997 26.8172 28.6031Z" fill="#323337"/>
<path d="M30.3477 28.2984C30.3477 30.7711 32.1932 32.7779 34.4688 32.7779C36.7443 32.7779 38.572 30.8069 38.5899 28.3522L36.8698 27.6892L33.1249 26.2558L31.2436 25.5391C30.6881 26.2916 30.3477 27.2592 30.3477 28.2984Z" fill="white"/>
<path d="M31.9238 28.6031C31.9238 30.144 33.0706 31.3983 34.4682 31.3983C35.8658 31.3983 37.0125 30.144 37.0125 28.6031C37.0125 28.2806 36.9588 27.976 36.8692 27.6893L33.1243 26.2559C32.4076 26.7396 31.9238 27.5997 31.9238 28.6031Z" fill="#323337"/>
<path fill-rule="evenodd" clip-rule="evenodd" d="M30.8955 25.398C30.9339 25.295 31.0486 25.2427 31.1516 25.2812L38.8742 28.166C38.9772 28.2044 39.0295 28.3191 38.9911 28.4221C38.9526 28.5251 38.8379 28.5775 38.7349 28.539L31.0123 25.6542C30.9093 25.6157 30.857 25.501 30.8955 25.398Z" fill="#79A8C5"/>
<path fill-rule="evenodd" clip-rule="evenodd" d="M27.5426 25.4728C27.5795 25.5764 27.5254 25.6902 27.4218 25.7271L19.6633 28.4864C19.5597 28.5233 19.4459 28.4691 19.409 28.3655C19.3722 28.2619 19.4263 28.1481 19.5299 28.1113L27.2883 25.3519C27.3919 25.3151 27.5058 25.3692 27.5426 25.4728Z" fill="#79A8C5"/>
</g>
<defs>
<clipPath id="clip0_915_25219">
<rect width="63" height="63" fill="white"/>
</clipPath>
</defs>
</svg>
