<svg width="25" height="24" viewBox="0 0 25 24" fill="none" xmlns="http://www.w3.org/2000/svg">
<path fill-rule="evenodd" clip-rule="evenodd" d="M4.21447 3.46447C2.75 4.92893 2.75 7.28595 2.75 12C2.75 16.714 2.75 19.0711 4.21447 20.5355C5.67893 22 8.03595 22 12.75 22C17.464 22 19.8211 22 21.2855 20.5355C22.75 19.0711 22.75 16.714 22.75 12C22.75 7.28595 22.75 4.92893 21.2855 3.46447C19.8211 2 17.464 2 12.75 2C8.03595 2 5.67893 2 4.21447 3.46447ZM15.75 12C16.3023 12 16.75 11.3284 16.75 10.5C16.75 9.67157 16.3023 9 15.75 9C15.1977 9 14.75 9.67157 14.75 10.5C14.75 11.3284 15.1977 12 15.75 12ZM10.75 10.5C10.75 11.3284 10.3023 12 9.75 12C9.19772 12 8.75 11.3284 8.75 10.5C8.75 9.67157 9.19772 9 9.75 9C10.3023 9 10.75 9.67157 10.75 10.5ZM9.14747 15.5534C9.39413 15.2206 9.86385 15.1508 10.1966 15.3975C10.925 15.9373 11.8041 16.25 12.75 16.25C13.6959 16.25 14.575 15.9373 15.3034 15.3975C15.6362 15.1508 16.1059 15.2206 16.3525 15.5534C16.5992 15.8862 16.5294 16.3559 16.1966 16.6025C15.2242 17.3233 14.035 17.75 12.75 17.75C11.465 17.75 10.2758 17.3233 9.30339 16.6025C8.97062 16.3559 8.90082 15.8862 9.14747 15.5534Z" fill="#D1D1D1"/>
</svg>
