<svg width="63" height="63" viewBox="0 0 63 63" fill="none" xmlns="http://www.w3.org/2000/svg">
<path d="M47.965 58.0405C40.2929 62.9863 24.3719 63.9999 14.7948 57.5162C5.21775 51.0325 2.00209 41.4903 3.26039 26.9325C4.51869 12.3747 13.8336 18.0195 15.7735 19.9594C16.8396 21.0255 20.23 16.6389 23.0786 8.59977C25.9273 0.56063 37.4442 -1.1171 39.9084 9.12406C42.3726 19.3652 44.3124 20.0293 45.4484 17.8623C46.5844 15.6952 47.8427 10.26 50.7962 8.44248C53.7497 6.62494 55.8119 6.11812 59.045 9.70078C62.2782 13.2834 60.8626 34.7445 59.3421 41.5428C57.8217 48.3411 55.6546 53.0947 47.9825 58.0405H47.965Z" fill="#F17272"/>
<path d="M30.9081 28.3657V28.4531C30.9081 29.9386 30.3838 31.2493 29.5799 32.0357C29.108 32.5251 28.5138 32.8047 27.8846 32.8047C26.2069 32.8047 24.8438 30.8473 24.8438 28.4531C24.8438 27.789 24.9486 27.1598 25.1234 26.6006L28.1817 27.5268L30.9081 28.3657Z" fill="white"/>
<path d="M30.9085 28.3657V28.4531C30.9085 29.9386 30.3842 31.2493 29.5803 32.0358C28.7415 31.7387 28.1123 30.2357 28.1123 28.4531C28.1123 28.1385 28.1298 27.824 28.1822 27.5269L30.9085 28.3657Z" fill="#323337"/>
<path d="M38.3534 28.453C38.3534 29.9385 37.8291 31.2493 37.0252 32.0357C36.5533 32.525 35.9591 32.8047 35.33 32.8047C33.6522 32.8047 32.2891 30.8473 32.2891 28.453C32.2891 28.3657 32.2891 28.2783 32.2891 28.2084L35.6445 27.1598L37.9864 26.4258C38.2136 27.0375 38.3359 27.719 38.3359 28.453H38.3534Z" fill="white"/>
<path d="M38.3529 28.453C38.3529 29.9385 37.8286 31.2493 37.0247 32.0357C36.1858 31.7386 35.5566 30.2356 35.5566 28.453C35.5566 27.9987 35.5916 27.5617 35.6615 27.1598L38.0033 26.4258C38.2305 27.0375 38.3529 27.719 38.3529 28.453Z" fill="#323337"/>
<path d="M33.9665 34.3423C34.1937 33.9229 33.4247 32.8393 31.4674 32.9792C29.51 33.119 29.0207 34.3598 29.3527 34.7443C29.6848 35.1288 33.7218 34.7443 33.9665 34.3248V34.3423Z" fill="#C55555"/>
<path fill-rule="evenodd" clip-rule="evenodd" d="M36.324 23.9848C36.3884 24.0705 36.3712 24.1922 36.2854 24.2567L33.262 26.5286C33.1763 26.593 33.0546 26.5757 32.9901 26.49C32.9257 26.4043 32.943 26.2825 33.0287 26.2181L36.0521 23.9462C36.1379 23.8818 36.2596 23.899 36.324 23.9848Z" fill="#C55555"/>
<path fill-rule="evenodd" clip-rule="evenodd" d="M26.2813 25.0924C26.3324 24.9981 26.4503 24.9631 26.5446 25.0142L29.8651 26.8143C29.9594 26.8654 29.9944 26.9833 29.9433 27.0776C29.8921 27.1718 29.7743 27.2068 29.68 27.1557L26.3595 25.3557C26.2652 25.3045 26.2302 25.1867 26.2813 25.0924Z" fill="#C55555"/>
<path fill-rule="evenodd" clip-rule="evenodd" d="M37.0223 25.5262C37.0461 25.6307 36.9806 25.7348 36.876 25.7586L33.1885 26.5974C33.0839 26.6212 32.9798 26.5557 32.9561 26.4512C32.9323 26.3466 32.9978 26.2425 33.1023 26.2187L36.7898 25.3799C36.8944 25.3561 36.9985 25.4216 37.0223 25.5262Z" fill="#C55555"/>
<path fill-rule="evenodd" clip-rule="evenodd" d="M27.4943 23.715C27.5823 23.6537 27.7034 23.6754 27.7647 23.7634L29.9317 26.8742C29.993 26.9622 29.9714 27.0832 29.8834 27.1445C29.7954 27.2058 29.6744 27.1842 29.6131 27.0962L27.446 23.9854C27.3847 23.8974 27.4063 23.7763 27.4943 23.715Z" fill="#C55555"/>
</svg>
