<svg width="32" height="32" viewBox="0 0 32 32" fill="none" xmlns="http://www.w3.org/2000/svg">
<path fill-rule="evenodd" clip-rule="evenodd" d="M11.949 24.6249C8.02593 21.6183 2.66669 16.6515 2.66669 11.9554C2.66669 4.11016 10.0002 1.18115 16 7.24148C21.9998 1.18115 29.3334 4.11016 29.3334 11.9553C29.3334 16.6516 23.9742 21.6183 20.0511 24.6249C18.2751 25.9861 17.3871 26.6667 16 26.6667C14.613 26.6667 13.725 25.9861 11.949 24.6249ZM22 8.33333C22.5523 8.33333 23 8.78105 23 9.33333V11H24.6667C25.219 11 25.6667 11.4477 25.6667 12C25.6667 12.5523 25.219 13 24.6667 13H23V14.6667C23 15.2189 22.5523 15.6667 22 15.6667C21.4478 15.6667 21 15.2189 21 14.6667V13H19.3334C18.7811 13 18.3334 12.5523 18.3334 12C18.3334 11.4477 18.7811 11 19.3334 11H21V9.33333C21 8.78105 21.4478 8.33333 22 8.33333Z" fill="#D1D1D1"/>
</svg>
