<svg width="25" height="24" viewBox="0 0 25 24" fill="none" xmlns="http://www.w3.org/2000/svg">
<path fill-rule="evenodd" clip-rule="evenodd" d="M3.71447 3.46447C2.25 4.92893 2.25 7.28595 2.25 12C2.25 16.714 2.25 19.0711 3.71447 20.5355C5.17893 22 7.53595 22 12.25 22C16.964 22 19.3211 22 20.7855 20.5355C22.25 19.0711 22.25 16.714 22.25 12C22.25 7.28595 22.25 4.92893 20.7855 3.46447C19.3211 2 16.964 2 12.25 2C7.53595 2 5.17893 2 3.71447 3.46447ZM12.25 13C12.8023 13 13.25 12.5523 13.25 12C13.25 11.4477 12.8023 11 12.25 11C11.6977 11 11.25 11.4477 11.25 12C11.25 12.5523 11.6977 13 12.25 13ZM9.25 12C9.25 12.5523 8.80228 13 8.25 13C7.69772 13 7.25 12.5523 7.25 12C7.25 11.4477 7.69772 11 8.25 11C8.80228 11 9.25 11.4477 9.25 12ZM16.25 13C16.8023 13 17.25 12.5523 17.25 12C17.25 11.4477 16.8023 11 16.25 11C15.6977 11 15.25 11.4477 15.25 12C15.25 12.5523 15.6977 13 16.25 13Z" fill="#D1D1D1"/>
</svg>
