<svg width="63" height="63" viewBox="0 0 63 63" fill="none" xmlns="http://www.w3.org/2000/svg">
<path d="M10.7048 12.4763C16.633 -2.73511 36.9224 -2.59083 47.9433 5.19352C58.9641 12.9779 58.6635 32.7099 56.369 48.7254C54.0745 64.741 39.5175 62.7308 24.6972 62.9944C12.841 63.2053 9.07444 57.3923 8.6732 54.4594L8.66089 54.3742C7.42679 45.8358 4.79645 27.6372 10.7048 12.4763Z" fill="#98D6B7"/>
<circle cx="26.2454" cy="19.971" r="3.54035" fill="white"/>
<circle cx="35.8675" cy="19.971" r="3.54035" fill="white"/>
<circle cx="26.2454" cy="19.9715" r="1.54323" fill="#323337"/>
<circle cx="35.8674" cy="19.9715" r="1.54323" fill="#323337"/>
<path d="M30.074 27.2644C32.365 27.0139 37.1853 26.1392 38.1384 24.6442C39.3297 22.7755 37.0675 33.5042 30.074 27.2644Z" fill="#55A57D"/>
</svg>
